HIERARCHY
ROOT Hips
{
	OFFSET 0.559510 88.370186 5.270278
	CHANNELS 6 Xposition Yposition Zposition Zrotation Yrotation Xrotation 
	JOINT Spine
	{
		OFFSET 0.000000 8.814246 -2.080107
		CHANNELS 3 Zrotation Yrotation Xrotation
		JOINT Spine1
		{
			OFFSET 0.000000 8.844141 0.000000
			CHANNELS 3 Zrotation Yrotation Xrotation
			JOINT Spine2
			{
				OFFSET -0.000000 11.682268 -0.000000
				CHANNELS 3 Zrotation Yrotation Xrotation
				JOINT Spine3
				{
					OFFSET 0.000000 11.746700 0.000000
					CHANNELS 3 Zrotation Yrotation Xrotation
					JOINT Neck
					{
						OFFSET 0.000000 17.658264 0.000000
						CHANNELS 3 Zrotation Yrotation Xrotation
						JOINT Neck1
						{
							OFFSET 0.000000 5.101515 0.000000
							CHANNELS 3 Zrotation Yrotation Xrotation
							JOINT Head
							{
								OFFSET -0.000000 5.101515 -0.000000
								CHANNELS 3 Zrotation Yrotation Xrotation
								JOINT HeadEnd
								{
									OFFSET 0.000000 11.655085 0.000000
									CHANNELS 3 Zrotation Yrotation Xrotation
									End Site
									{
										OFFSET 0.000000 0.000000 0.000000
									}
								}
							}
						}
					}
					JOINT RightShoulder
					{
						OFFSET -2.625389 11.175210 0.000000
						CHANNELS 3 Zrotation Yrotation Xrotation
						JOINT RightArm
						{
							OFFSET 0.000000 10.434715 -0.000000
							CHANNELS 3 Zrotation Yrotation Xrotation
							JOINT RightForeArm
							{
								OFFSET -0.000000 29.628420 0.000000
								CHANNELS 3 Zrotation Yrotation Xrotation
								JOINT RightHand
								{
									OFFSET -0.000000 22.857611 0.000000
									CHANNELS 3 Zrotation Yrotation Xrotation
									JOINT RightHandThumb1
									{
										OFFSET -2.867323 3.959563 2.944291
										CHANNELS 3 Zrotation Yrotation Xrotation
										JOINT RightHandThumb2
										{
											OFFSET -0.000000 3.350399 0.000000
											CHANNELS 3 Zrotation Yrotation Xrotation
											JOINT RightHandThumb3
											{
												OFFSET 0.000000 3.756509 -0.000000
												CHANNELS 3 Zrotation Yrotation Xrotation
												JOINT RightHandThumb4
												{
													OFFSET 0.000000 3.147345 -0.000000
													CHANNELS 3 Zrotation Yrotation Xrotation
													End Site
													{
														OFFSET 0.000000 0.000000 0.000000
													}
												}
											}
										}
									}
									JOINT RightHandIndex1
									{
										OFFSET -0.086752 10.030893 2.345280
										CHANNELS 3 Zrotation Yrotation Xrotation
										JOINT RightHandIndex2
										{
											OFFSET 0.000000 4.061090 -0.000000
											CHANNELS 3 Zrotation Yrotation Xrotation
											JOINT RightHandIndex3
											{
												OFFSET -0.000000 3.248873 0.000000
												CHANNELS 3 Zrotation Yrotation Xrotation
												JOINT RightHandIndex4
												{
													OFFSET 0.000000 2.639709 -0.000000
													CHANNELS 3 Zrotation Yrotation Xrotation
													End Site
													{
														OFFSET 0.000000 0.000000 0.000000
													}
												}
											}
										}
									}
									JOINT RightHandMiddle1
									{
										OFFSET 0.104102 9.502952 0.006768
										CHANNELS 3 Zrotation Yrotation Xrotation
										JOINT RightHandMiddle2
										{
											OFFSET -0.000000 4.568727 0.000000
											CHANNELS 3 Zrotation Yrotation Xrotation
											JOINT RightHandMiddle3
											{
												OFFSET -0.000000 3.654981 0.000000
												CHANNELS 3 Zrotation Yrotation Xrotation
												JOINT RightHandMiddle4
												{
													OFFSET -0.000000 2.741236 0.000000
													CHANNELS 3 Zrotation Yrotation Xrotation
													End Site
													{
														OFFSET 0.000000 0.000000 0.000000
													}
												}
											}
										}
									}
									JOINT RightHandRing1
									{
										OFFSET 0.086752 8.921708 -2.267442
										CHANNELS 3 Zrotation Yrotation Xrotation
										JOINT RightHandRing2
										{
											OFFSET 0.000000 4.061090 -0.000000
											CHANNELS 3 Zrotation Yrotation Xrotation
											JOINT RightHandRing3
											{
												OFFSET 0.000000 3.654981 -0.000000
												CHANNELS 3 Zrotation Yrotation Xrotation
												JOINT RightHandRing4
												{
													OFFSET -0.000000 2.741236 0.000000
													CHANNELS 3 Zrotation Yrotation Xrotation
													End Site
													{
														OFFSET 0.000000 0.000000 0.000000
													}
												}
											}
										}
									}
									JOINT RightHandPinky1
									{
										OFFSET -0.173504 7.976997 -4.467199
										CHANNELS 3 Zrotation Yrotation Xrotation
										JOINT RightHandPinky2
										{
											OFFSET -0.000000 3.350399 -0.000000
											CHANNELS 3 Zrotation Yrotation Xrotation
											JOINT RightHandPinky3
											{
												OFFSET -0.000000 2.842763 0.000000
												CHANNELS 3 Zrotation Yrotation Xrotation
												JOINT RightHandPinky4
												{
													OFFSET -0.000000 2.639709 0.000000
													CHANNELS 3 Zrotation Yrotation Xrotation
													End Site
													{
														OFFSET 0.000000 0.000000 0.000000
													}
												}
											}
										}
									}
									JOINT RightForeArmEnd
									{
										OFFSET 0.000000 0.000000 0.000000
										CHANNELS 3 Zrotation Yrotation Xrotation
										End Site
										{
											OFFSET 0.000000 0.000000 0.000000
										}
									}
								}
								JOINT RightArmEnd
								{
									OFFSET 0.000000 0.000000 0.000000
									CHANNELS 3 Zrotation Yrotation Xrotation
									End Site
									{
										OFFSET 0.000000 0.000000 0.000000
									}
								}
							}
						}
					}
					JOINT LeftShoulder
					{
						OFFSET 2.625389 11.175210 -0.000000
						CHANNELS 3 Zrotation Yrotation Xrotation
						JOINT LeftArm
						{
							OFFSET 0.000000 10.813635 0.000000
							CHANNELS 3 Zrotation Yrotation Xrotation
							JOINT LeftForeArm
							{
								OFFSET 0.000000 28.724781 0.000000
								CHANNELS 3 Zrotation Yrotation Xrotation
								JOINT LeftHand
								{
									OFFSET 0.644384 25.716167 -0.328871
									CHANNELS 3 Zrotation Yrotation Xrotation
									JOINT LeftHandThumb1
									{
										OFFSET 2.867323 3.959563 2.944291
										CHANNELS 3 Zrotation Yrotation Xrotation
										JOINT LeftHandThumb2
										{
											OFFSET 0.000000 3.350399 -0.000000
											CHANNELS 3 Zrotation Yrotation Xrotation
											JOINT LeftHandThumb3
											{
												OFFSET 0.000000 3.756509 0.000000
												CHANNELS 3 Zrotation Yrotation Xrotation
												JOINT LeftHandThumb4
												{
													OFFSET 0.000000 3.100000 0.000000
													CHANNELS 3 Zrotation Yrotation Xrotation
													End Site
													{
														OFFSET 0.000000 0.000000 0.000000
													}
												}
											}
										}
									}
									JOINT LeftHandIndex1
									{
										OFFSET 0.086752 10.030893 2.345280
										CHANNELS 3 Zrotation Yrotation Xrotation
										JOINT LeftHandIndex2
										{
											OFFSET -0.000000 4.061090 -0.000000
											CHANNELS 3 Zrotation Yrotation Xrotation
											JOINT LeftHandIndex3
											{
												OFFSET -0.000000 3.248873 -0.000000
												CHANNELS 3 Zrotation Yrotation Xrotation
												JOINT LeftHandIndex4
												{
													OFFSET -0.000000 2.639709 -0.000000
													CHANNELS 3 Zrotation Yrotation Xrotation
													End Site
													{
														OFFSET 0.000000 0.000000 0.000000
													}
												}
											}
										}
									}
									JOINT LeftHandMiddle1
									{
										OFFSET -0.104102 9.502952 0.006768
										CHANNELS 3 Zrotation Yrotation Xrotation
										JOINT LeftHandMiddle2
										{
											OFFSET 0.000000 4.568727 0.000000
											CHANNELS 3 Zrotation Yrotation Xrotation
											JOINT LeftHandMiddle3
											{
												OFFSET 0.000000 3.654981 0.000000
												CHANNELS 3 Zrotation Yrotation Xrotation
												JOINT LeftHandMiddle4
												{
													OFFSET 0.000000 2.741236 0.000000
													CHANNELS 3 Zrotation Yrotation Xrotation
													End Site
													{
														OFFSET 0.000000 0.000000 0.000000
													}
												}
											}
										}
									}
									JOINT LeftHandRing1
									{
										OFFSET -0.086752 8.921708 -2.267442
										CHANNELS 3 Zrotation Yrotation Xrotation
										JOINT LeftHandRing2
										{
											OFFSET -0.000000 4.061090 -0.000000
											CHANNELS 3 Zrotation Yrotation Xrotation
											JOINT LeftHandRing3
											{
												OFFSET 0.000000 3.654981 -0.000000
												CHANNELS 3 Zrotation Yrotation Xrotation
												JOINT LeftHandRing4
												{
													OFFSET 0.000000 2.741236 0.000000
													CHANNELS 3 Zrotation Yrotation Xrotation
													End Site
													{
														OFFSET 0.000000 0.000000 0.000000
													}
												}
											}
										}
									}
									JOINT LeftHandPinky1
									{
										OFFSET 0.173504 7.976997 -4.467199
										CHANNELS 3 Zrotation Yrotation Xrotation
										JOINT LeftHandPinky2
										{
											OFFSET 0.000000 3.350399 0.000000
											CHANNELS 3 Zrotation Yrotation Xrotation
											JOINT LeftHandPinky3
											{
												OFFSET 0.000000 2.842763 -0.000000
												CHANNELS 3 Zrotation Yrotation Xrotation
												JOINT LeftHandPinky4
												{
													OFFSET -0.000000 2.639709 -0.000000
													CHANNELS 3 Zrotation Yrotation Xrotation
													End Site
													{
														OFFSET 0.000000 0.000000 0.000000
													}
												}
											}
										}
									}
									JOINT LeftForeArmEnd
									{
										OFFSET 0.000000 0.000000 0.000000
										CHANNELS 3 Zrotation Yrotation Xrotation
										End Site
										{
											OFFSET 0.000000 0.000000 0.000000
										}
									}
								}
								JOINT LeftArmEnd
								{
									OFFSET 0.000000 0.000000 0.000000
									CHANNELS 3 Zrotation Yrotation Xrotation
									End Site
									{
										OFFSET 0.000000 0.000000 0.000000
									}
								}
							}
						}
					}
				}
			}
		}
	}
	JOINT RightUpLeg
	{
		OFFSET -11.289943 -0.000000 0.000000
		CHANNELS 3 Zrotation Yrotation Xrotation
		JOINT RightLeg
		{
			OFFSET 0.000000 -38.200325 0.000000
			CHANNELS 3 Zrotation Yrotation Xrotation
			JOINT RightFoot
			{
				OFFSET 0.000000 -39.900856 0.000000
				CHANNELS 3 Zrotation Yrotation Xrotation
				JOINT RightToeBase
				{
					OFFSET 0.000000 0.000000 15.261641
					CHANNELS 3 Zrotation Yrotation Xrotation
					JOINT RightToeBaseEnd
					{
						OFFSET -0.000000 0.000000 7.370709
						CHANNELS 3 Zrotation Yrotation Xrotation
						End Site
						{
							OFFSET 0.000000 0.000000 0.000000
						}
					}
				}
				JOINT RightLegEnd
				{
					OFFSET 0.000000 0.000000 0.000000
					CHANNELS 3 Zrotation Yrotation Xrotation
					End Site
					{
						OFFSET 0.000000 0.000000 0.000000
					}
				}
			}
			JOINT RightUpLegEnd
			{
				OFFSET 0.000000 0.000000 0.000000
				CHANNELS 3 Zrotation Yrotation Xrotation
				End Site
				{
					OFFSET 0.000000 0.000000 0.000000
				}
			}
		}
	}
	JOINT LeftUpLeg
	{
		OFFSET 11.315661 -0.000000 -0.000000
		CHANNELS 3 Zrotation Yrotation Xrotation
		JOINT LeftLeg
		{
			OFFSET 0.000000 -38.200325 0.000000
			CHANNELS 3 Zrotation Yrotation Xrotation
			JOINT LeftFoot
			{
				OFFSET -0.000000 -39.900856 -0.000000
				CHANNELS 3 Zrotation Yrotation Xrotation
				JOINT LeftToeBase
				{
					OFFSET 0.000000 0.000000 15.261641
					CHANNELS 3 Zrotation Yrotation Xrotation
					JOINT LeftToeBaseEnd
					{
						OFFSET -0.000000 0.000000 7.539996
						CHANNELS 3 Zrotation Yrotation Xrotation
						End Site
						{
							OFFSET 0.000000 0.000000 0.000000
						}
					}
				}
				JOINT LeftLegEnd
				{
					OFFSET 0.000000 0.000000 0.000000
					CHANNELS 3 Zrotation Yrotation Xrotation
					End Site
					{
						OFFSET 0.000000 0.000000 0.000000
					}
				}
			}
			JOINT LeftUpLegEnd
			{
				OFFSET 0.000000 0.000000 0.000000
				CHANNELS 3 Zrotation Yrotation Xrotation
				End Site
				{
					OFFSET 0.000000 0.000000 0.000000
				}
			}
		}
	}
}
MOTION
Frames: 4
Frame Time: 0.016667
2.855350 86.497223 12.865001 -2.258937 14.854733 -13.079154 4.647138 -0.967241 7.901714 -0.020828 -0.216595 3.715915 -2.228801 -0.338824 8.386571 -3.133428 0.015769 5.249130 7.950654 -7.272799 -2.136428 -0.911087 -4.309746 -7.702203 0.338397 -0.068818 -17.755524 0.000000 0.000000 0.000000 88.346626 -0.298700 11.495071 53.099442 -30.834791 8.039410 0.574143 17.411917 45.378998 -1.342168 11.257424 0.189027 15.155187 -2.192932 37.827106 -0.000003 0.000037 -37.206444 0.000013 0.000019 -25.828655 0.000025 0.000003 -0.000042 36.980339 -0.091244 -4.708106 25.558357 0.051064 -0.746596 25.423258 0.089679 -0.671303 0.000003 0.000028 -0.000017 36.513260 -0.038018 -4.598065 25.033878 0.041380 -0.311115 24.950937 0.063244 -0.275370 0.000032 -0.000048 -0.000009 39.719109 -0.023447 -2.461650 27.201488 -0.062585 0.445027 27.033577 -0.079620 0.372583 -0.000001 0.000314 0.000027 38.639763 -0.139922 -1.563416 27.097038 -0.166445 1.286533 27.062321 -0.184682 1.126203 0.000462 0.000001 -0.000007 0.000000 0.000000 0.000000 0.000000 0.000000 0.000000 -87.918015 0.547149 7.925223 -67.919807 16.433649 0.777754 -1.927411 -14.722010 37.361111 13.734642 -22.266069 -15.844899 -11.336739 1.798494 39.618179 0.000014 0.000023 -27.711744 0.000217 -0.000019 -19.037415 -0.001440 -0.000030 -0.000882 -14.964363 -0.018300 -8.074645 -10.331462 -0.227340 -0.650438 -10.902659 -0.201256 -0.421917 0.000015 0.000085 0.000004 -16.161314 -0.012185 -8.038261 -10.960854 -0.096875 -0.223321 -10.767096 -0.050245 -0.137306 0.000149 -0.000043 0.000291 -23.837414 -0.034103 -6.240644 -15.384171 0.131637 0.250963 -15.151529 0.070719 0.156141 -0.001369 0.000031 0.000009 -29.981401 -0.213212 -5.252266 -19.050774 0.338037 0.893079 -19.110994 0.247750 0.557039 -0.001438 -0.000013 -0.000012 0.000000 0.000000 0.000000 0.000000 0.000000 0.000000 0.542890 -18.780489 12.553066 -0.049672 -0.594471 17.495205 -0.668247 -20.344942 11.521773 -0.232013 1.016427 -19.695072 0.000000 0.000000 0.000000 0.000000 0.000000 0.000000 0.000000 0.000000 0.000000 12.879864 -10.521556 -5.108443 0.390261 0.916805 26.976826 -5.370713 1.312112 16.676174 1.104230 -0.444321 -22.663919 0.000000 0.000000 0.000000 0.000000 0.000000 0.000000 0.000000 0.000000 0.000000 
3.323254 86.521599 13.037575 -2.211069 14.861283 -12.984609 4.657648 -0.967049 7.793951 -0.036691 -0.203747 3.661638 -2.330577 -0.301651 8.247499 -3.118851 0.016647 5.235409 7.974188 -7.286052 -1.908852 -0.806279 -4.245218 -7.608989 0.328541 -0.178100 -17.900377 0.000000 0.000000 0.000000 87.953537 -0.257530 11.424897 51.901844 -30.538784 8.523759 0.567585 17.547262 46.276714 -1.092355 11.154499 0.762874 15.073679 -2.187426 37.860142 -0.000002 0.000035 -37.039474 0.000012 0.000019 -25.718002 0.000025 0.000004 -0.000042 36.713570 -0.085402 -4.744047 25.266430 0.058311 -0.770306 25.090584 0.097019 -0.694272 0.000003 0.000027 -0.000016 36.221664 -0.035988 -4.602239 24.725748 0.044622 -0.318635 24.639423 0.065976 -0.284392 0.000032 -0.000039 -0.000008 39.230072 -0.024672 -2.416807 26.829039 -0.067255 0.458079 26.678968 -0.084023 0.382231 0.000001 0.000286 0.000028 37.844997 -0.154101 -1.450487 26.628626 -0.174152 1.307457 26.609808 -0.192371 1.135903 0.000451 0.000001 -0.000008 0.000000 0.000000 0.000000 0.000000 0.000000 0.000000 -87.647163 0.550814 7.777950 -66.919769 15.257070 0.831872 -2.044050 -15.155902 37.526810 14.183486 -22.533485 -16.110477 -10.859659 1.763588 39.832752 0.000014 0.000022 -26.512901 0.000219 -0.000020 -18.197258 -0.001417 -0.000029 -0.000898 -12.637506 -0.012832 -7.306752 -8.978178 -0.227195 -0.654185 -9.534711 -0.202889 -0.424396 0.000015 0.000005 0.000004 -13.875021 -0.011543 -7.459536 -9.595909 -0.097859 -0.223555 -9.408403 -0.050144 -0.136416 -0.000028 -0.000043 0.000302 -21.394901 -0.036764 -6.038603 -13.836070 0.133271 0.258638 -13.605288 0.071885 0.161769 -0.001302 0.000032 0.000009 -27.607618 -0.223390 -5.394636 -17.444651 0.347035 0.928046 -17.526731 0.254101 0.577794 -0.001437 -0.000012 -0.000011 0.000000 0.000000 0.000000 0.000000 0.000000 0.000000 0.125897 -18.857204 12.661642 -0.055650 -0.610177 17.393200 -0.472029 -20.257299 11.586050 -0.225285 1.037195 -19.640751 0.000000 0.000000 0.000000 0.000000 0.000000 0.000000 0.000000 0.000000 0.000000 12.912361 -10.518081 -5.064359 0.390283 0.915047 26.524662 -5.438199 1.057768 16.861258 1.128745 -0.483313 -22.674057 0.000000 0.000000 0.000000 0.000000 0.000000 0.000000 0.000000 0.000000 0.000000 
3.834737 86.579330 13.229843 -2.144986 14.828934 -12.847002 4.653671 -0.963174 7.663964 -0.056959 -0.191180 3.562632 -2.456420 -0.234120 8.098606 -3.096416 0.019879 5.202993 8.101990 -7.327112 -1.666302 -0.677784 -4.150266 -7.495933 0.323622 -0.296103 -18.024336 0.000000 0.000000 0.000000 87.515533 -0.210240 11.316215 50.775520 -30.084660 8.768361 0.543166 17.694677 47.500324 -0.810841 10.934635 1.390564 15.019928 -2.182552 37.882629 -0.000002 0.000034 -36.938221 0.000011 0.000019 -25.655214 0.000026 0.000005 -0.000041 36.587021 -0.077284 -4.815010 25.021215 0.065424 -0.780614 24.810223 0.103322 -0.705438 0.000004 0.000027 -0.000015 36.047558 -0.033567 -4.626935 24.446741 0.046993 -0.320460 24.355623 0.067837 -0.288127 0.000032 -0.000029 -0.000007 38.790043 -0.025221 -2.401311 26.449043 -0.069885 0.461484 26.320457 -0.086577 0.384685 0.000003 0.000249 0.000028 37.110508 -0.164280 -1.365748 26.142654 -0.176637 1.299906 26.140064 -0.194983 1.122853 0.000423 0.000000 -0.000008 0.000000 0.000000 0.000000 0.000000 0.000000 0.000000 -87.364677 0.560896 7.558667 -65.852203 14.125278 0.740172 -2.155860 -15.490592 37.883537 14.657054 -22.290365 -16.173128 -10.480338 1.728229 40.011368 0.000015 0.000022 -25.544437 0.000219 -0.000020 -17.522558 -0.001416 -0.000029 -0.000861 -10.770158 -0.007485 -6.574192 -7.991074 -0.222035 -0.645076 -8.524759 -0.199239 -0.415409 0.000014 -0.000080 0.000004 -12.016376 -0.010589 -6.857335 -8.576383 -0.096952 -0.219436 -8.391151 -0.048941 -0.132399 -0.000264 -0.000042 0.000308 -19.313786 -0.038947 -5.767938 -12.609660 0.132400 0.260164 -12.376929 0.071383 0.162806 -0.001243 0.000032 0.000009 -25.518206 -0.230281 -5.410990 -16.104828 0.348100 0.945020 -16.209133 0.254259 0.585759 -0.001392 -0.000012 -0.000009 0.000000 0.000000 0.000000 0.000000 0.000000 0.000000 -0.328651 -18.907843 12.827153 -0.063563 -0.631490 17.148008 -0.281133 -20.132229 11.735691 -0.219303 1.062585 -19.592110 0.000000 0.000000 0.000000 0.000000 0.000000 0.000000 0.000000 0.000000 0.000000 12.925265 -10.526870 -4.955902 0.387745 0.911992 25.915504 -5.494829 0.828242 17.134081 1.155818 -0.524912 -22.683231 0.000000 0.000000 0.000000 0.000000 0.000000 0.000000 0.000000 0.000000 0.000000 
4.393419 86.663498 13.450807 -2.069493 14.763776 -12.693615 4.650826 -0.957492 7.518826 -0.089615 -0.178341 3.432197 -2.586922 -0.147896 7.941088 -3.071843 0.030947 5.175017 8.298877 -7.390686 -1.437317 -0.531133 -4.030846 -7.373477 0.327086 -0.419325 -18.131496 0.000000 0.000000 0.000000 87.056961 -0.165442 11.161319 49.745834 -29.486301 8.766068 0.503193 17.820269 48.954659 -0.617943 10.582741 2.049447 15.004781 -2.179307 37.888630 -0.000002 0.000033 -36.929375 0.000010 0.000019 -25.659065 0.000026 0.000006 -0.000040 36.613853 -0.067949 -4.911729 24.857578 0.070316 -0.777110 24.620298 0.106851 -0.704715 0.000004 0.000026 -0.000014 36.016396 -0.031068 -4.666982 24.237680 0.047932 -0.316930 24.139750 0.068504 -0.286760 0.000033 -0.000018 -0.000006 38.449291 -0.025229 -2.404012 26.115461 -0.069992 0.455757 26.009787 -0.087016 0.380302 0.000005 0.000197 0.000029 36.495373 -0.171711 -1.293275 25.698753 -0.172933 1.265472 25.712379 -0.191923 1.088654 0.000393 -0.000000 -0.000009 0.000000 0.000000 0.000000 0.000000 0.000000 0.000000 -87.096413 0.582445 7.269579 -64.828392 13.046937 0.481402 -2.269609 -15.731195 38.307667 15.093851 -21.827679 -16.063616 -10.195739 1.696042 40.152401 0.000016 0.000021 -24.798101 0.000215 -0.000020 -17.005510 -0.001434 -0.000027 -0.000788 -9.337651 -0.002702 -5.910018 -7.313805 -0.215746 -0.633408 -7.820263 -0.193998 -0.403321 0.000014 -0.000176 0.000005 -10.564544 -0.009615 -6.274123 -7.849937 -0.095488 -0.214485 -7.662424 -0.047677 -0.127961 -0.000514 -0.000041 0.000310 -17.595507 -0.040711 -5.460317 -11.663191 0.131223 0.260087 -11.422213 0.070477 0.162289 -0.001217 0.000032 0.000009 -23.729002 -0.235673 -5.332475 -15.005619 0.346814 0.956415 -15.130244 0.252630 0.591154 -0.001304 -0.000011 -0.000008 0.000000 0.000000 0.000000 0.000000 0.000000 0.000000 -0.813728 -18.936392 13.050250 -0.073226 -0.657792 16.822708 -0.079870 -19.973782 11.929984 -0.218746 1.092989 -19.542564 0.000000 0.000000 0.000000 0.000000 0.000000 0.000000 0.000000 0.000000 0.000000 12.904356 -10.563874 -4.780044 0.384206 0.909179 25.229607 -5.542930 0.627039 17.419527 1.181450 -0.571083 -22.676304 0.000000 0.000000 0.000000 0.000000 0.000000 0.000000 0.000000 0.000000 0.000000 
